<?xml version="1.0" encoding="UTF-8" standalone="no"?>
<!-- Created with Inkscape (http://www.inkscape.org/) -->

<svg
   xmlns:dc="http://purl.org/dc/elements/1.1/"
   xmlns:cc="http://creativecommons.org/ns#"
   xmlns:rdf="http://www.w3.org/1999/02/22-rdf-syntax-ns#"
   xmlns:svg="http://www.w3.org/2000/svg"
   xmlns="http://www.w3.org/2000/svg"
   xmlns:sodipodi="http://sodipodi.sourceforge.net/DTD/sodipodi-0.dtd"
   xmlns:inkscape="http://www.inkscape.org/namespaces/inkscape"
   width="81.484253mm"
   height="83.809418mm"
   viewBox="0 0 81.484253 83.809418"
   version="1.1"
   id="svg4082"
   inkscape:version="0.92.3 (2405546, 2018-03-11)"
   sodipodi:docname="drawing.svg">
  <defs
     id="defs4076" />
  <sodipodi:namedview
     id="base"
     pagecolor="#ffffff"
     bordercolor="#666666"
     borderopacity="1.0"
     inkscape:pageopacity="0.0"
     inkscape:pageshadow="2"
     inkscape:zoom="0.35"
     inkscape:cx="2033.986"
     inkscape:cy="-493.04858"
     inkscape:document-units="mm"
     inkscape:current-layer="layer1"
     showgrid="false"
     inkscape:window-width="1920"
     inkscape:window-height="1017"
     inkscape:window-x="-8"
     inkscape:window-y="-8"
     inkscape:window-maximized="1"
     fit-margin-top="0"
     fit-margin-left="0"
     fit-margin-right="0"
     fit-margin-bottom="0" />
  <metadata
     id="metadata4079">
    <rdf:RDF>
      <cc:Work
         rdf:about="">
        <dc:format>image/svg+xml</dc:format>
        <dc:type
           rdf:resource="http://purl.org/dc/dcmitype/StillImage" />
        <dc:title></dc:title>
      </cc:Work>
    </rdf:RDF>
  </metadata>
  <g
     inkscape:label="Layer 1"
     inkscape:groupmode="layer"
     id="layer1"
     transform="translate(432.32546,65.428517)">
    <path
       inkscape:connector-curvature="0"
       id="path3928"
       style="fill:#ffffff;fill-opacity:1;fill-rule:nonzero;stroke:none;stroke-width:0.35277775"
       d="m -387.69322,-7.4601445 c -0.32103,-1.2065 -1.42028,-2.095148 -2.72768,-2.095148 -7.70219,0 -13.96823,-6.2663895 -13.96823,-13.9685875 0,-1.887008 0.36901,-3.715808 1.09643,-5.435952 0.50835,-1.201915 0.12065,-2.556933 -0.86077,-3.323521 2.89771,-4.526844 7.97066,-7.533569 13.73257,-7.533569 8.98384,0 16.29305,7.309202 16.29305,16.293042 0,8.054975 -5.87552,14.7619855 -13.56537,16.0637355 m 14.56126,-16.0637355 c 0,-9.533115 -7.75582,-17.288933 -17.28894,-17.288933 -6.14362,0 -11.54817,3.221566 -14.61558,8.063793 -1.37477,-0.43956 -2.88255,0.234246 -3.45581,1.589617 -1.02341,2.420056 -1.54234,4.988983 -1.54234,7.635523 0,10.815108 8.79863,19.6137375 19.61373,19.6137375 1.46827,0 2.67441,-1.121127 2.80953,-2.554462 8.20137,-1.345848 14.47941,-8.4828945 14.47941,-17.0592755" />
    <path
       inkscape:connector-curvature="0"
       id="path3930"
       style="fill:#ffffff;fill-opacity:1;fill-rule:nonzero;stroke:none;stroke-width:0.35277775"
       d="m -354.86887,-8.5053545 c -1.9431,4.594225 -4.72546,8.72101898 -8.26911,12.264673 -3.04941,3.049762 -6.53203,5.533319 -10.37167,7.4058615 -0.72919,-1.077028 -2.13324,-1.5391675 -3.38948,-1.034343 -4.29684,1.728258 -8.84626,2.604558 -13.52162,2.604558 -9.68517,0 -18.79071,-3.7715475 -25.63919,-10.6203745 -6.84847,-6.848123 -10.62037,-15.9536685 -10.62037,-25.6388295 0,-9.685163 3.7719,-18.790709 10.62037,-25.639184 6.84848,-6.848474 15.95402,-10.620021 25.63919,-10.620021 4.69265,0 9.2583,0.88265 13.56924,2.623608 1.25518,0.507295 2.65994,0.04692 3.39055,-1.029052 3.82058,1.869369 7.28627,4.34481 10.32298,7.381521 3.54365,3.543653 6.32601,7.670094 8.26911,12.264672 2.01189,4.756502 3.03177,9.80934 3.03177,15.018456 0,5.208762 -1.01988,10.262304 -3.03177,15.0184545 m 0.91722,-30.4249675 c -1.99354,-4.71311 -4.84752,-8.94609 -8.48218,-12.580759 -3.12315,-3.123142 -6.68903,-5.66808 -10.62073,-7.587544 0.33408,-1.343378 -0.36231,-2.76225 -1.68275,-3.295297 -4.98616,-2.013656 -10.26266,-3.034595 -15.68344,-3.034595 -5.65609,0 -11.14425,1.108428 -16.31245,3.294239 -4.99004,2.11067 -9.47138,5.131858 -13.31877,8.979252 -3.84775,3.847747 -6.86858,8.328731 -8.97961,13.319125 -2.18581,5.168194 -3.29388,10.656359 -3.29388,16.312092 0,5.655734 1.10807,11.144248 3.29388,16.3120895 2.11103,4.990042 5.13186,9.471732 8.97961,13.319125 3.84739,3.847397 8.32873,6.8685835 13.31877,8.9792545 5.1682,2.18581 10.65636,3.294237 16.31245,3.294237 5.40032,0 10.65847,-1.013529 15.6284,-3.012017 1.32116,-0.531635 2.01966,-1.949095 1.68769,-3.292827 3.95147,-1.922285 7.53428,-4.4760425 10.67083,-7.6125905 3.63466,-3.63466902 6.48864,-7.86765 8.48218,-12.58076 2.06411,-4.8799755 3.11044,-10.0636925 3.11044,-15.4065115 0,-5.342821 -1.04633,-10.526538 -3.11044,-15.406513" />
    <path
       inkscape:connector-curvature="0"
       id="path3932"
       style="fill:#ffffff;fill-opacity:1;fill-rule:nonzero;stroke:none;stroke-width:0.35277775"
       d="m -395.56856,-23.52374 c 0,-0.46496 0.0628,-0.915104 0.17886,-1.343729 1.00118,0.3683 2.16888,0.151694 2.97286,-0.652288 0.53305,-0.533045 1.24213,-0.82691 1.99602,-0.82691 1.55645,0 2.82257,1.266473 2.82257,2.822927 0,1.137708 -0.67698,2.159 -1.72473,2.601738 -1.04599,0.442735 -1.68593,1.44145 -1.72155,2.506837 -2.5453,-0.309033 -4.52403,-2.481437 -4.52403,-5.108575 m 5.14774,-8.468429 c -2.26201,0 -4.38856,0.880886 -5.98805,2.480379 -1.10244,1.10208 -1.10244,2.889605 0,3.992033 0.0441,0.0441 0.09,0.08608 0.13617,0.126649 -0.18874,0.589843 -0.29175,1.217789 -0.29175,1.869368 0,3.22933 2.50508,5.882571 5.67373,6.123517 0.0204,0.05962 0.0423,0.11924 0.0674,0.178154 0.45543,1.077029 1.50106,1.724025 2.60102,1.723671 0.36689,0 0.73943,-0.07197 1.0982,-0.22366 3.14184,-1.328915 5.17173,-4.391025 5.17173,-7.801682 0,-4.669367 -3.79907,-8.468429 -8.46844,-8.468429" />
    <path
       inkscape:connector-curvature="0"
       id="path3934"
       style="fill:#ffffff;fill-opacity:1;fill-rule:nonzero;stroke:none;stroke-width:0.35277775"
       d="m -409.82297,-4.1218435 c -5.1823,-5.182306 -8.03663,-12.0731125 -8.03663,-19.4020715 0,-7.328958 2.85433,-14.219414 8.03663,-19.402072 1.98579,-1.985786 4.22346,-3.62832 6.63928,-4.900789 0.73554,1.056569 2.12725,1.505656 3.3715,1.0033 2.98309,-1.203678 6.14292,-1.813983 9.39129,-1.813983 6.70808,0 13.01468,2.612319 17.75813,7.355769 4.7431,4.743096 7.35577,11.049704 7.35577,17.757775 0,6.708421 -2.61267,13.015029 -7.35577,17.7581275 -0.94862,0.948267 -1.0802,2.403121 -0.39687,3.492852 -4.88774,4.008261 -10.95693,6.187723 -17.36126,6.187723 -7.32895,0 -14.21976,-2.854325 -19.40207,-8.036631 m 19.40207,-50.1611185 c -3.97545,0 -7.84612,0.748242 -11.50372,2.223911 -1.33068,0.537281 -2.02813,1.973439 -1.6757,3.325989 -2.5213,1.322211 -4.85599,3.032478 -6.92679,5.10293 -5.37069,5.370688 -8.32838,12.511263 -8.32838,20.106217 0,7.594952 2.95769,14.7355275 8.32838,20.1062155 5.37069,5.370689 12.51091,8.328379 20.10621,8.328379 6.6541,0 12.95965,-2.270831 18.03118,-6.444898 0.50624,0.390877 1.11443,0.58737498 1.72297,0.58737498 0.72249,0 1.44462,-0.27551898 1.99601,-0.82690998 5.80955,-5.809898 9.00889,-13.5339675 9.00889,-21.7501605 0,-8.216197 -3.19934,-15.940265 -9.00889,-21.749809 -5.80954,-5.809897 -13.53396,-9.009239 -21.75016,-9.009239" />
  </g>
</svg>
